%TF.GenerationSoftware,KiCad,Pcbnew,9.0.6*%
%TF.CreationDate,2026-01-14T12:07:50+08:00*%
%TF.ProjectId,civ2bcd,63697632-6263-4642-9e6b-696361645f70,rev?*%
%TF.SameCoordinates,Original*%
%TF.FileFunction,Soldermask,Top*%
%TF.FilePolarity,Negative*%
%FSLAX46Y46*%
G04 Gerber Fmt 4.6, Leading zero omitted, Abs format (unit mm)*
G04 Created by KiCad (PCBNEW 9.0.6) date 2026-01-14 12:07:50*
%MOMM*%
%LPD*%
G01*
G04 APERTURE LIST*
G04 Aperture macros list*
%AMRoundRect*
0 Rectangle with rounded corners*
0 $1 Rounding radius*
0 $2 $3 $4 $5 $6 $7 $8 $9 X,Y pos of 4 corners*
0 Add a 4 corners polygon primitive as box body*
4,1,4,$2,$3,$4,$5,$6,$7,$8,$9,$2,$3,0*
0 Add four circle primitives for the rounded corners*
1,1,$1+$1,$2,$3*
1,1,$1+$1,$4,$5*
1,1,$1+$1,$6,$7*
1,1,$1+$1,$8,$9*
0 Add four rect primitives between the rounded corners*
20,1,$1+$1,$2,$3,$4,$5,0*
20,1,$1+$1,$4,$5,$6,$7,0*
20,1,$1+$1,$6,$7,$8,$9,0*
20,1,$1+$1,$8,$9,$2,$3,0*%
G04 Aperture macros list end*
%ADD10RoundRect,0.250000X-1.000000X1.000000X-1.000000X-1.000000X1.000000X-1.000000X1.000000X1.000000X0*%
%ADD11C,2.500000*%
%ADD12RoundRect,0.250000X-0.375000X-0.625000X0.375000X-0.625000X0.375000X0.625000X-0.375000X0.625000X0*%
%ADD13R,1.700000X1.700000*%
%ADD14C,1.700000*%
%ADD15RoundRect,0.250000X-0.625000X0.312500X-0.625000X-0.312500X0.625000X-0.312500X0.625000X0.312500X0*%
%ADD16RoundRect,0.250000X0.312500X0.625000X-0.312500X0.625000X-0.312500X-0.625000X0.312500X-0.625000X0*%
%ADD17RoundRect,0.250000X0.625000X-0.312500X0.625000X0.312500X-0.625000X0.312500X-0.625000X-0.312500X0*%
%ADD18RoundRect,0.250001X1.149999X1.149999X-1.149999X1.149999X-1.149999X-1.149999X1.149999X-1.149999X0*%
%ADD19C,2.800000*%
%ADD20RoundRect,0.250000X-0.412500X-0.650000X0.412500X-0.650000X0.412500X0.650000X-0.412500X0.650000X0*%
%ADD21RoundRect,0.250000X0.650000X-0.412500X0.650000X0.412500X-0.650000X0.412500X-0.650000X-0.412500X0*%
%ADD22C,5.600000*%
%ADD23RoundRect,0.250000X0.375000X0.625000X-0.375000X0.625000X-0.375000X-0.625000X0.375000X-0.625000X0*%
%ADD24RoundRect,0.250000X0.700000X-0.275000X0.700000X0.275000X-0.700000X0.275000X-0.700000X-0.275000X0*%
%ADD25RoundRect,0.250000X0.600000X-0.400000X0.600000X0.400000X-0.600000X0.400000X-0.600000X-0.400000X0*%
%ADD26RoundRect,0.250001X-1.149999X-1.149999X1.149999X-1.149999X1.149999X1.149999X-1.149999X1.149999X0*%
%ADD27RoundRect,0.250000X1.000000X-1.000000X1.000000X1.000000X-1.000000X1.000000X-1.000000X-1.000000X0*%
%ADD28RoundRect,0.100000X-0.637500X-0.100000X0.637500X-0.100000X0.637500X0.100000X-0.637500X0.100000X0*%
%ADD29RoundRect,0.150000X0.150000X-0.512500X0.150000X0.512500X-0.150000X0.512500X-0.150000X-0.512500X0*%
G04 APERTURE END LIST*
D10*
%TO.C,J6*%
X199132500Y-68500000D03*
D11*
X199132500Y-73500000D03*
%TD*%
D12*
%TO.C,D3*%
X143700000Y-59330000D03*
X146500000Y-59330000D03*
%TD*%
D13*
%TO.C,J3*%
X184475000Y-76242177D03*
D14*
X187015000Y-76242177D03*
X189555000Y-76242177D03*
%TD*%
D15*
%TO.C,R22*%
X160037500Y-78037500D03*
X160037500Y-80962500D03*
%TD*%
D16*
%TO.C,R12*%
X152462500Y-66000000D03*
X149537500Y-66000000D03*
%TD*%
D15*
%TO.C,F5*%
X174500000Y-83500000D03*
X174500000Y-86425000D03*
%TD*%
D17*
%TO.C,F1*%
X155037500Y-75462500D03*
X155037500Y-72537500D03*
%TD*%
D16*
%TO.C,R13*%
X152462500Y-69500000D03*
X149537500Y-69500000D03*
%TD*%
D15*
%TO.C,R19*%
X174500000Y-78037500D03*
X174500000Y-80962500D03*
%TD*%
D17*
%TO.C,F4*%
X169500000Y-75462500D03*
X169500000Y-72537500D03*
%TD*%
D15*
%TO.C,F7*%
X165000000Y-83500000D03*
X165000000Y-86425000D03*
%TD*%
D18*
%TO.C,J5*%
X178000000Y-94500000D03*
D19*
X173000000Y-94500000D03*
X168000000Y-94500000D03*
X163000000Y-94500000D03*
X158000000Y-94500000D03*
%TD*%
D15*
%TO.C,F8*%
X160037500Y-83500000D03*
X160037500Y-86425000D03*
%TD*%
%TO.C,R14*%
X174500000Y-72537500D03*
X174500000Y-75462500D03*
%TD*%
D10*
%TO.C,J1*%
X199132500Y-86000000D03*
D11*
X199132500Y-91000000D03*
%TD*%
D17*
%TO.C,R5*%
X178500000Y-80962500D03*
X178500000Y-78037500D03*
%TD*%
D20*
%TO.C,C9*%
X187875000Y-72500000D03*
X191000000Y-72500000D03*
%TD*%
D21*
%TO.C,C4*%
X185500000Y-99750000D03*
X185500000Y-96625000D03*
%TD*%
D22*
%TO.C,*%
X137500000Y-60500000D03*
%TD*%
D23*
%TO.C,D2*%
X202400000Y-80500000D03*
X199600000Y-80500000D03*
%TD*%
D16*
%TO.C,R11*%
X152462500Y-63000000D03*
X149537500Y-63000000D03*
%TD*%
D21*
%TO.C,C1*%
X188500000Y-99750000D03*
X188500000Y-96625000D03*
%TD*%
D15*
%TO.C,F6*%
X169462500Y-83500000D03*
X169462500Y-86425000D03*
%TD*%
D17*
%TO.C,F2*%
X160037500Y-75462500D03*
X160037500Y-72537500D03*
%TD*%
D12*
%TO.C,D4*%
X143700000Y-62720000D03*
X146500000Y-62720000D03*
%TD*%
D16*
%TO.C,R9*%
X196962500Y-80500000D03*
X194037500Y-80500000D03*
%TD*%
%TO.C,R10*%
X152462500Y-59500000D03*
X149537500Y-59500000D03*
%TD*%
%TO.C,R15*%
X190962500Y-66500000D03*
X188037500Y-66500000D03*
%TD*%
D17*
%TO.C,F3*%
X165037500Y-75462500D03*
X165037500Y-72537500D03*
%TD*%
D22*
%TO.C,*%
X200500000Y-98500000D03*
%TD*%
D15*
%TO.C,R20*%
X155037500Y-83500000D03*
X155037500Y-86425000D03*
%TD*%
D17*
%TO.C,R7*%
X178500000Y-86425000D03*
X178500000Y-83500000D03*
%TD*%
D20*
%TO.C,C10*%
X187875000Y-69500000D03*
X191000000Y-69500000D03*
%TD*%
D12*
%TO.C,D6*%
X143700000Y-69500000D03*
X146500000Y-69500000D03*
%TD*%
D24*
%TO.C,L1*%
X189500000Y-93575000D03*
X189500000Y-90425000D03*
%TD*%
D17*
%TO.C,R8*%
X169500000Y-80962500D03*
X169500000Y-78037500D03*
%TD*%
D25*
%TO.C,D1*%
X195000000Y-99915000D03*
X195000000Y-96415000D03*
%TD*%
D12*
%TO.C,D5*%
X143700000Y-66110000D03*
X146500000Y-66110000D03*
%TD*%
D22*
%TO.C,*%
X200500000Y-60500000D03*
%TD*%
D26*
%TO.C,J4*%
X158000000Y-64000000D03*
D19*
X163000000Y-64000000D03*
X168000000Y-64000000D03*
X173000000Y-64000000D03*
X178000000Y-64000000D03*
%TD*%
D21*
%TO.C,C11*%
X178500000Y-75625000D03*
X178500000Y-72500000D03*
%TD*%
%TO.C,C2*%
X191500000Y-99750000D03*
X191500000Y-96625000D03*
%TD*%
D27*
%TO.C,J2*%
X138367500Y-81500000D03*
D11*
X138367500Y-76500000D03*
%TD*%
D28*
%TO.C,U1*%
X184137500Y-79575000D03*
X184137500Y-80225000D03*
X184137500Y-80875000D03*
X184137500Y-81525000D03*
X184137500Y-82175000D03*
X184137500Y-82825000D03*
X184137500Y-83475000D03*
X184137500Y-84125000D03*
X184137500Y-84775000D03*
X184137500Y-85425000D03*
X189862500Y-85425000D03*
X189862500Y-84775000D03*
X189862500Y-84125000D03*
X189862500Y-83475000D03*
X189862500Y-82825000D03*
X189862500Y-82175000D03*
X189862500Y-81525000D03*
X189862500Y-80875000D03*
X189862500Y-80225000D03*
X189862500Y-79575000D03*
%TD*%
D29*
%TO.C,U2*%
X183500000Y-93775000D03*
X184450000Y-93775000D03*
X185400000Y-93775000D03*
X185400000Y-91500000D03*
X183500000Y-91500000D03*
%TD*%
D15*
%TO.C,R21*%
X165037500Y-78037500D03*
X165037500Y-80962500D03*
%TD*%
D22*
%TO.C,*%
X137500000Y-98500000D03*
%TD*%
D21*
%TO.C,C6*%
X182500000Y-99750000D03*
X182500000Y-96625000D03*
%TD*%
D17*
%TO.C,R6*%
X155037500Y-80962500D03*
X155037500Y-78037500D03*
%TD*%
M02*
