%TF.GenerationSoftware,KiCad,Pcbnew,9.0.6*%
%TF.CreationDate,2025-12-15T17:46:07+08:00*%
%TF.ProjectId,civ2bcd,63697632-6263-4642-9e6b-696361645f70,rev?*%
%TF.SameCoordinates,Original*%
%TF.FileFunction,Legend,Bot*%
%TF.FilePolarity,Positive*%
%FSLAX46Y46*%
G04 Gerber Fmt 4.6, Leading zero omitted, Abs format (unit mm)*
G04 Created by KiCad (PCBNEW 9.0.6) date 2025-12-15 17:46:07*
%MOMM*%
%LPD*%
G01*
G04 APERTURE LIST*
%ADD10C,0.000000*%
G04 APERTURE END LIST*
D10*
%TO.C,G\u002A\u002A\u002A*%
G36*
X162707839Y-84620519D02*
G01*
X162851200Y-84681915D01*
X162965715Y-84763005D01*
X163034532Y-84827856D01*
X163034532Y-84716441D01*
X163034532Y-84605025D01*
X163247242Y-84605025D01*
X163459951Y-84605025D01*
X163459951Y-85656059D01*
X163459951Y-86707094D01*
X163247242Y-86707094D01*
X163034532Y-86707094D01*
X163034532Y-86018112D01*
X163034516Y-85960169D01*
X163033844Y-85749784D01*
X163031491Y-85582028D01*
X163026499Y-85450929D01*
X163017914Y-85350512D01*
X163004781Y-85274805D01*
X162986145Y-85217834D01*
X162961051Y-85173626D01*
X162928544Y-85136209D01*
X162887668Y-85099608D01*
X162860513Y-85078763D01*
X162741049Y-85024325D01*
X162608389Y-85015672D01*
X162469853Y-85053609D01*
X162423159Y-85072283D01*
X162363921Y-85088942D01*
X162334192Y-85087308D01*
X162330281Y-85082586D01*
X162299482Y-85045917D01*
X162247735Y-84984602D01*
X162183770Y-84908987D01*
X162049134Y-84749994D01*
X162110158Y-84702456D01*
X162190084Y-84655982D01*
X162311732Y-84613527D01*
X162443223Y-84589188D01*
X162563219Y-84588340D01*
X162707839Y-84620519D01*
G37*
G36*
X163121052Y-87892331D02*
G01*
X163276577Y-87934053D01*
X163433124Y-88019674D01*
X163560050Y-88105088D01*
X163560050Y-88006682D01*
X163560050Y-87908276D01*
X163772759Y-87908276D01*
X163985468Y-87908276D01*
X163985468Y-88946798D01*
X163985468Y-89985320D01*
X163773858Y-89985320D01*
X163562247Y-89985320D01*
X163554892Y-89273900D01*
X163553257Y-89123070D01*
X163550876Y-88946487D01*
X163548029Y-88809803D01*
X163544266Y-88707050D01*
X163539137Y-88632262D01*
X163532190Y-88579472D01*
X163522976Y-88542714D01*
X163511043Y-88516021D01*
X163495942Y-88493427D01*
X163450361Y-88440508D01*
X163339579Y-88357594D01*
X163215967Y-88314343D01*
X163089294Y-88313289D01*
X162969330Y-88356961D01*
X162944471Y-88370574D01*
X162889943Y-88392183D01*
X162860476Y-88391326D01*
X162857067Y-88387227D01*
X162826813Y-88351245D01*
X162775526Y-88290483D01*
X162712114Y-88215501D01*
X162692807Y-88192196D01*
X162638388Y-88119906D01*
X162604003Y-88063542D01*
X162596406Y-88033715D01*
X162609421Y-88018329D01*
X162670119Y-87977641D01*
X162758708Y-87938626D01*
X162859709Y-87907431D01*
X162957647Y-87890205D01*
X163121052Y-87892331D01*
G37*
G36*
X171564927Y-87894835D02*
G01*
X171735221Y-87940761D01*
X171882712Y-88023691D01*
X171993350Y-88108142D01*
X171993350Y-88008209D01*
X171993350Y-87908276D01*
X172206059Y-87908276D01*
X172418769Y-87908276D01*
X172418769Y-88946798D01*
X172418769Y-89985320D01*
X172206059Y-89985320D01*
X171993350Y-89985320D01*
X171993350Y-89305044D01*
X171993312Y-89197523D01*
X171992838Y-89016596D01*
X171991467Y-88875961D01*
X171988758Y-88769111D01*
X171984269Y-88689541D01*
X171977560Y-88630744D01*
X171968188Y-88586214D01*
X171955714Y-88549444D01*
X171939695Y-88513930D01*
X171883750Y-88431317D01*
X171785125Y-88355649D01*
X171665675Y-88316237D01*
X171535828Y-88316120D01*
X171406013Y-88358341D01*
X171378622Y-88372003D01*
X171327203Y-88395528D01*
X171305284Y-88402134D01*
X171301387Y-88397065D01*
X171272876Y-88362156D01*
X171223045Y-88301968D01*
X171159340Y-88225509D01*
X171129808Y-88189248D01*
X171074782Y-88115584D01*
X171039747Y-88059592D01*
X171031254Y-88031210D01*
X171044884Y-88015700D01*
X171104472Y-87976982D01*
X171190771Y-87938965D01*
X171288033Y-87907997D01*
X171380511Y-87890427D01*
X171386576Y-87889828D01*
X171564927Y-87894835D01*
G37*
G36*
X164340613Y-85298470D02*
G01*
X164343133Y-85500666D01*
X164346080Y-85666845D01*
X164349793Y-85795201D01*
X164354698Y-85891954D01*
X164361222Y-85963324D01*
X164369793Y-86015532D01*
X164380837Y-86054797D01*
X164394783Y-86087339D01*
X164454469Y-86173195D01*
X164556066Y-86250284D01*
X164677535Y-86291409D01*
X164807588Y-86293129D01*
X164934939Y-86252004D01*
X164993314Y-86221056D01*
X165040051Y-86191762D01*
X165076415Y-86158429D01*
X165103786Y-86115306D01*
X165123545Y-86056644D01*
X165137071Y-85976691D01*
X165145745Y-85869697D01*
X165150947Y-85729910D01*
X165154056Y-85551580D01*
X165156453Y-85328955D01*
X165163792Y-84605025D01*
X165376702Y-84605025D01*
X165589613Y-84605025D01*
X165582072Y-85412069D01*
X165574532Y-86219113D01*
X165506945Y-86347233D01*
X165485124Y-86385930D01*
X165369980Y-86530983D01*
X165222475Y-86637974D01*
X165043572Y-86706159D01*
X165030122Y-86709327D01*
X164867333Y-86722194D01*
X164698489Y-86695027D01*
X164539089Y-86631927D01*
X164404631Y-86536998D01*
X164335813Y-86472508D01*
X164335813Y-86590813D01*
X164335813Y-86709118D01*
X164129360Y-86701849D01*
X163922907Y-86694581D01*
X163922907Y-85656059D01*
X163922907Y-84617537D01*
X164127904Y-84610292D01*
X164332901Y-84603048D01*
X164340613Y-85298470D01*
G37*
G36*
X171674990Y-84599619D02*
G01*
X171830171Y-84652102D01*
X171969360Y-84746572D01*
X172068424Y-84836070D01*
X172068424Y-84720547D01*
X172068424Y-84605025D01*
X172281133Y-84605025D01*
X172493843Y-84605025D01*
X172493843Y-85656059D01*
X172493843Y-86707094D01*
X172281133Y-86707094D01*
X172068424Y-86707094D01*
X172068424Y-86024219D01*
X172068361Y-85878937D01*
X172067825Y-85706342D01*
X172066353Y-85572838D01*
X172063485Y-85471944D01*
X172058761Y-85397174D01*
X172051722Y-85342047D01*
X172041908Y-85300079D01*
X172028860Y-85264787D01*
X172012119Y-85229687D01*
X171979548Y-85177853D01*
X171887865Y-85089011D01*
X171774325Y-85028056D01*
X171655518Y-85005419D01*
X171579957Y-85016587D01*
X171471783Y-85060600D01*
X171373723Y-85127419D01*
X171305745Y-85205616D01*
X171298249Y-85219150D01*
X171284867Y-85249131D01*
X171274396Y-85286150D01*
X171266384Y-85336352D01*
X171260381Y-85405880D01*
X171255936Y-85500879D01*
X171252598Y-85627494D01*
X171249915Y-85791869D01*
X171247438Y-86000148D01*
X171239752Y-86707094D01*
X171026883Y-86707094D01*
X170814014Y-86707094D01*
X170821860Y-85912562D01*
X170822163Y-85881986D01*
X170824513Y-85666023D01*
X170827035Y-85493446D01*
X170830126Y-85358338D01*
X170834182Y-85254782D01*
X170839600Y-85176861D01*
X170846777Y-85118657D01*
X170856108Y-85074254D01*
X170867992Y-85037735D01*
X170882825Y-85003182D01*
X170941375Y-84900376D01*
X171055589Y-84771481D01*
X171194119Y-84675054D01*
X171348903Y-84612999D01*
X171511881Y-84587219D01*
X171674990Y-84599619D01*
G37*
G36*
X161209390Y-84593697D02*
G01*
X161315362Y-84597806D01*
X161396150Y-84609575D01*
X161470731Y-84632804D01*
X161558079Y-84671292D01*
X161643715Y-84717602D01*
X161742476Y-84782917D01*
X161818007Y-84845589D01*
X161836845Y-84865198D01*
X161946994Y-85017862D01*
X162029880Y-85203208D01*
X162082929Y-85411613D01*
X162103565Y-85633457D01*
X162089215Y-85859120D01*
X162068170Y-85973269D01*
X161997721Y-86191385D01*
X161893166Y-86373947D01*
X161755308Y-86519997D01*
X161584953Y-86628580D01*
X161382907Y-86698738D01*
X161301158Y-86713687D01*
X161092711Y-86717889D01*
X160885348Y-86676625D01*
X160687926Y-86592245D01*
X160509301Y-86467096D01*
X160398947Y-86371027D01*
X160557568Y-86227382D01*
X160716188Y-86083736D01*
X160810395Y-86168847D01*
X160874020Y-86217631D01*
X161009244Y-86279338D01*
X161154337Y-86300950D01*
X161298653Y-86283022D01*
X161431546Y-86226108D01*
X161542371Y-86130762D01*
X161599667Y-86039328D01*
X161648511Y-85900076D01*
X161675329Y-85741090D01*
X161678945Y-85576602D01*
X161658187Y-85420843D01*
X161611880Y-85288044D01*
X161587324Y-85244878D01*
X161487985Y-85129328D01*
X161364720Y-85051073D01*
X161226433Y-85011724D01*
X161082027Y-85012889D01*
X160940406Y-85056179D01*
X160810473Y-85143201D01*
X160717050Y-85227603D01*
X160560403Y-85088067D01*
X160403757Y-84948530D01*
X160486681Y-84862765D01*
X160493417Y-84856080D01*
X160561955Y-84801191D01*
X160655556Y-84740074D01*
X160756022Y-84684756D01*
X160825136Y-84651353D01*
X160902982Y-84619256D01*
X160973482Y-84601716D01*
X161055758Y-84594504D01*
X161168928Y-84593387D01*
X161209390Y-84593697D01*
G37*
G36*
X170989577Y-89008841D02*
G01*
X170989359Y-89198397D01*
X170983796Y-89349207D01*
X170971595Y-89468564D01*
X170951464Y-89563762D01*
X170922111Y-89642093D01*
X170882244Y-89710851D01*
X170830570Y-89777330D01*
X170794595Y-89814586D01*
X170704943Y-89887974D01*
X170612023Y-89945574D01*
X170539062Y-89976312D01*
X170366562Y-90011833D01*
X170186349Y-90003420D01*
X170007580Y-89952101D01*
X169839414Y-89858903D01*
X169766158Y-89806740D01*
X169766158Y-89896030D01*
X169766158Y-89985320D01*
X169553449Y-89985320D01*
X169340739Y-89985320D01*
X169340739Y-89080334D01*
X169768802Y-89080334D01*
X169778152Y-89221593D01*
X169799724Y-89330625D01*
X169835198Y-89415932D01*
X169886253Y-89486013D01*
X169891846Y-89491957D01*
X169985125Y-89555247D01*
X170101867Y-89587573D01*
X170227100Y-89588664D01*
X170345853Y-89558251D01*
X170443155Y-89496063D01*
X170451462Y-89487874D01*
X170500313Y-89425214D01*
X170534898Y-89346611D01*
X170557140Y-89243646D01*
X170568962Y-89107901D01*
X170572288Y-88930959D01*
X170571885Y-88883753D01*
X170560981Y-88698102D01*
X170533091Y-88554972D01*
X170485372Y-88449719D01*
X170414976Y-88377698D01*
X170319060Y-88334265D01*
X170194777Y-88314775D01*
X170142737Y-88313436D01*
X170010170Y-88335193D01*
X169906863Y-88396459D01*
X169830010Y-88498648D01*
X169817735Y-88524061D01*
X169797835Y-88582147D01*
X169784387Y-88656191D01*
X169775684Y-88757551D01*
X169770017Y-88897585D01*
X169769995Y-88898349D01*
X169768802Y-89080334D01*
X169340739Y-89080334D01*
X169340739Y-88521379D01*
X169340739Y-87057438D01*
X169553449Y-87057438D01*
X169766158Y-87057438D01*
X169766158Y-87581263D01*
X169766158Y-88105088D01*
X169893084Y-88019674D01*
X170045219Y-87935880D01*
X170200577Y-87892952D01*
X170368561Y-87890205D01*
X170514720Y-87919187D01*
X170677456Y-87995358D01*
X170815728Y-88112764D01*
X170924186Y-88267768D01*
X170927168Y-88273429D01*
X170945165Y-88311903D01*
X170958734Y-88353966D01*
X170968668Y-88407363D01*
X170975762Y-88479836D01*
X170980810Y-88579128D01*
X170984608Y-88712982D01*
X170987949Y-88889141D01*
X170988518Y-88930959D01*
X170989577Y-89008841D01*
G37*
G36*
X162558767Y-88947797D02*
G01*
X162557264Y-89038708D01*
X162536102Y-89260260D01*
X162488239Y-89451490D01*
X162411475Y-89622463D01*
X162367184Y-89689414D01*
X162256220Y-89807868D01*
X162122451Y-89907169D01*
X161983498Y-89972891D01*
X161895524Y-89992182D01*
X161761839Y-90003796D01*
X161611923Y-90003810D01*
X161462147Y-89992911D01*
X161328886Y-89971790D01*
X161228513Y-89941133D01*
X161202607Y-89928426D01*
X161127035Y-89882929D01*
X161048224Y-89826528D01*
X160977682Y-89768438D01*
X160926918Y-89717873D01*
X160907439Y-89684048D01*
X160907641Y-89682779D01*
X160928783Y-89655062D01*
X160977903Y-89606263D01*
X161045309Y-89546084D01*
X161183180Y-89428297D01*
X161276787Y-89492701D01*
X161287246Y-89499827D01*
X161407346Y-89568162D01*
X161524602Y-89603456D01*
X161662857Y-89613148D01*
X161759826Y-89605454D01*
X161901500Y-89560940D01*
X162012629Y-89479671D01*
X162089323Y-89364936D01*
X162127692Y-89220025D01*
X162140155Y-89109458D01*
X161482436Y-89109458D01*
X160824718Y-89109458D01*
X160840299Y-88837144D01*
X160846148Y-88759113D01*
X161264504Y-88759113D01*
X161699075Y-88759113D01*
X162133646Y-88759113D01*
X162133096Y-88690296D01*
X162128823Y-88646588D01*
X162093449Y-88537753D01*
X162031739Y-88433814D01*
X161955133Y-88356243D01*
X161897461Y-88325819D01*
X161787689Y-88298148D01*
X161666857Y-88292571D01*
X161553480Y-88309369D01*
X161466072Y-88348823D01*
X161405693Y-88404964D01*
X161327867Y-88523319D01*
X161282327Y-88661649D01*
X161264504Y-88759113D01*
X160846148Y-88759113D01*
X160848232Y-88731307D01*
X160874649Y-88551427D01*
X160918338Y-88403737D01*
X160983074Y-88277254D01*
X161072630Y-88160993D01*
X161108561Y-88124048D01*
X161216509Y-88034440D01*
X161327787Y-87965842D01*
X161348054Y-87956035D01*
X161422690Y-87924570D01*
X161493578Y-87906362D01*
X161578619Y-87898019D01*
X161695715Y-87896151D01*
X161720332Y-87896355D01*
X161899551Y-87911187D01*
X162047243Y-87952934D01*
X162175621Y-88026482D01*
X162296897Y-88136719D01*
X162355063Y-88204549D01*
X162447876Y-88351117D01*
X162511023Y-88518455D01*
X162547116Y-88714651D01*
X162549338Y-88759113D01*
X162558767Y-88947797D01*
G37*
G36*
X174563903Y-85544966D02*
G01*
X174564386Y-85788868D01*
X174530863Y-86027285D01*
X174462686Y-86233670D01*
X174360856Y-86406365D01*
X174226373Y-86543714D01*
X174060237Y-86644058D01*
X173863448Y-86705741D01*
X173795560Y-86716866D01*
X173573981Y-86722668D01*
X173358870Y-86683468D01*
X173158768Y-86601466D01*
X172982219Y-86478863D01*
X172958651Y-86457967D01*
X172924225Y-86421620D01*
X172915031Y-86389773D01*
X172934357Y-86353272D01*
X172985491Y-86302963D01*
X173071721Y-86229690D01*
X173191749Y-86129197D01*
X173293701Y-86203051D01*
X173351039Y-86239124D01*
X173481077Y-86293931D01*
X173616807Y-86322558D01*
X173738330Y-86319781D01*
X173740486Y-86319373D01*
X173895491Y-86269332D01*
X174013780Y-86185798D01*
X174094399Y-86069724D01*
X174136391Y-85922066D01*
X174152271Y-85806207D01*
X173495080Y-85806207D01*
X172837890Y-85806207D01*
X172848972Y-85524680D01*
X172852665Y-85443555D01*
X172853293Y-85435379D01*
X173269606Y-85435379D01*
X173287292Y-85441131D01*
X173347643Y-85447014D01*
X173443139Y-85451680D01*
X173565773Y-85454754D01*
X173707537Y-85455862D01*
X173749750Y-85455860D01*
X173896178Y-85455576D01*
X174001117Y-85454186D01*
X174071464Y-85450801D01*
X174114119Y-85444534D01*
X174135981Y-85434496D01*
X174143948Y-85419800D01*
X174144919Y-85399557D01*
X174143660Y-85384615D01*
X174127378Y-85318120D01*
X174098430Y-85242117D01*
X174022784Y-85125336D01*
X173922204Y-85043039D01*
X173806402Y-84996714D01*
X173684193Y-84985859D01*
X173564390Y-85009972D01*
X173455807Y-85068552D01*
X173367257Y-85161099D01*
X173307555Y-85287110D01*
X173293274Y-85336714D01*
X173276247Y-85401478D01*
X173269606Y-85435379D01*
X172853293Y-85435379D01*
X172861352Y-85330449D01*
X172875141Y-85243862D01*
X172896807Y-85168749D01*
X172929124Y-85090066D01*
X172932300Y-85083110D01*
X173037324Y-84912072D01*
X173175602Y-84773568D01*
X173339896Y-84671084D01*
X173522967Y-84608105D01*
X173717576Y-84588118D01*
X173916484Y-84614608D01*
X174065690Y-84666699D01*
X174231003Y-84768160D01*
X174363893Y-84907308D01*
X174463947Y-85083553D01*
X174530754Y-85296302D01*
X174544519Y-85399557D01*
X174563903Y-85544966D01*
G37*
G36*
X178584618Y-85787538D02*
G01*
X178577458Y-85958832D01*
X178561405Y-86094962D01*
X178533943Y-86204884D01*
X178492557Y-86297553D01*
X178434732Y-86381924D01*
X178357952Y-86466953D01*
X178313308Y-86510639D01*
X178207957Y-86596157D01*
X178097694Y-86654720D01*
X177961724Y-86698479D01*
X177905708Y-86710066D01*
X177745654Y-86720794D01*
X177575331Y-86706466D01*
X177417584Y-86668346D01*
X177407677Y-86664774D01*
X177288704Y-86601861D01*
X177168247Y-86507376D01*
X177061687Y-86395144D01*
X176984402Y-86278987D01*
X176932498Y-86141530D01*
X176895368Y-85963291D01*
X176876560Y-85764557D01*
X176876487Y-85733863D01*
X177301615Y-85733863D01*
X177309604Y-85863573D01*
X177313059Y-85892014D01*
X177349913Y-86042132D01*
X177415820Y-86155261D01*
X177513540Y-86236448D01*
X177538177Y-86249291D01*
X177653398Y-86284532D01*
X177780469Y-86294527D01*
X177893690Y-86276561D01*
X177931508Y-86260145D01*
X178024013Y-86189789D01*
X178101363Y-86090112D01*
X178150874Y-85975940D01*
X178157032Y-85946290D01*
X178166954Y-85852471D01*
X178171596Y-85730160D01*
X178170215Y-85593986D01*
X178164164Y-85484043D01*
X178143253Y-85332193D01*
X178106661Y-85217784D01*
X178051742Y-85133722D01*
X177975849Y-85072913D01*
X177950737Y-85059162D01*
X177817716Y-85016544D01*
X177681105Y-85015917D01*
X177551725Y-85054406D01*
X177440399Y-85129131D01*
X177357948Y-85237216D01*
X177349780Y-85255902D01*
X177327846Y-85341719D01*
X177311799Y-85459165D01*
X177302701Y-85594470D01*
X177301615Y-85733863D01*
X176876487Y-85733863D01*
X176876073Y-85558739D01*
X176893905Y-85359249D01*
X176930055Y-85179497D01*
X176984522Y-85032895D01*
X177032856Y-84954369D01*
X177137298Y-84833037D01*
X177263264Y-84725523D01*
X177394274Y-84647334D01*
X177478088Y-84618024D01*
X177632240Y-84592681D01*
X177800068Y-84591373D01*
X177963384Y-84613784D01*
X178104003Y-84659601D01*
X178179055Y-84700202D01*
X178324289Y-84812327D01*
X178445634Y-84951312D01*
X178530010Y-85103527D01*
X178532032Y-85108622D01*
X178552609Y-85166012D01*
X178567195Y-85223669D01*
X178576793Y-85291548D01*
X178582407Y-85379603D01*
X178585040Y-85497788D01*
X178585695Y-85656059D01*
X178585088Y-85730160D01*
X178584618Y-85787538D01*
G37*
G36*
X167651305Y-85804212D02*
G01*
X167649743Y-85925553D01*
X167645823Y-86014702D01*
X167638484Y-86080957D01*
X167626662Y-86133614D01*
X167609292Y-86181972D01*
X167585312Y-86235328D01*
X167487251Y-86396203D01*
X167350063Y-86538231D01*
X167186628Y-86644164D01*
X167004846Y-86707577D01*
X166923431Y-86718770D01*
X166774591Y-86719759D01*
X166619476Y-86702357D01*
X166481820Y-86668346D01*
X166365481Y-86610553D01*
X166240983Y-86514822D01*
X166130944Y-86397340D01*
X166050139Y-86271686D01*
X166004015Y-86148497D01*
X165966578Y-85972021D01*
X165947190Y-85774097D01*
X165946155Y-85614875D01*
X166364710Y-85614875D01*
X166368179Y-85775926D01*
X166387568Y-85929936D01*
X166422263Y-86049514D01*
X166492332Y-86166960D01*
X166589571Y-86244935D01*
X166608077Y-86253698D01*
X166720817Y-86285838D01*
X166845595Y-86295609D01*
X166955511Y-86280405D01*
X166984152Y-86269768D01*
X167082966Y-86204790D01*
X167164849Y-86109593D01*
X167215459Y-85999670D01*
X167223461Y-85956448D01*
X167232079Y-85858791D01*
X167236086Y-85733609D01*
X167234838Y-85594334D01*
X167230406Y-85472963D01*
X167223369Y-85373677D01*
X167212426Y-85303441D01*
X167195767Y-85251129D01*
X167171581Y-85205616D01*
X167118542Y-85138083D01*
X167010035Y-85058688D01*
X166882352Y-85017245D01*
X166746757Y-85016702D01*
X166614519Y-85060001D01*
X166580886Y-85079194D01*
X166507973Y-85131182D01*
X166458353Y-85180591D01*
X166437943Y-85215220D01*
X166400779Y-85321948D01*
X166375972Y-85459358D01*
X166364710Y-85614875D01*
X165946155Y-85614875D01*
X165945853Y-85568350D01*
X165962565Y-85368406D01*
X165997327Y-85187891D01*
X166050139Y-85040432D01*
X166087403Y-84976648D01*
X166160363Y-84879287D01*
X166239690Y-84795659D01*
X166325395Y-84727268D01*
X166468685Y-84650014D01*
X166632097Y-84606576D01*
X166826952Y-84593047D01*
X166937667Y-84595740D01*
X167022013Y-84607060D01*
X167100535Y-84631966D01*
X167195411Y-84675414D01*
X167204811Y-84680101D01*
X167365564Y-84784258D01*
X167493267Y-84920150D01*
X167594793Y-85094998D01*
X167606784Y-85121917D01*
X167624309Y-85169249D01*
X167636581Y-85221124D01*
X167644523Y-85286642D01*
X167649056Y-85374903D01*
X167651100Y-85495009D01*
X167651577Y-85656059D01*
X167651435Y-85733609D01*
X167651305Y-85804212D01*
G37*
G36*
X168989224Y-84607609D02*
G01*
X169167597Y-84661910D01*
X169319187Y-84746551D01*
X169438157Y-84859182D01*
X169518665Y-84997452D01*
X169528630Y-85027741D01*
X169546227Y-85140688D01*
X169546196Y-85270275D01*
X169529475Y-85395019D01*
X169497002Y-85493438D01*
X169444737Y-85579928D01*
X169369005Y-85662807D01*
X169272011Y-85726788D01*
X169146622Y-85775327D01*
X168985706Y-85811881D01*
X168782131Y-85839905D01*
X168777884Y-85840372D01*
X168617403Y-85860526D01*
X168500420Y-85882368D01*
X168420550Y-85908876D01*
X168371406Y-85943026D01*
X168346603Y-85987796D01*
X168339754Y-86046163D01*
X168341146Y-86080947D01*
X168366560Y-86176724D01*
X168427100Y-86246456D01*
X168526898Y-86293585D01*
X168670084Y-86321557D01*
X168742797Y-86325857D01*
X168921897Y-86306447D01*
X169102707Y-86249436D01*
X169269413Y-86159110D01*
X169410797Y-86062445D01*
X169552962Y-86206109D01*
X169695126Y-86349773D01*
X169599263Y-86429398D01*
X169544870Y-86470837D01*
X169389918Y-86563517D01*
X169214784Y-86640840D01*
X169040444Y-86692915D01*
X168946687Y-86711239D01*
X168802794Y-86727104D01*
X168665845Y-86721980D01*
X168511323Y-86696009D01*
X168440063Y-86678943D01*
X168251093Y-86608838D01*
X168103926Y-86511420D01*
X167998671Y-86386805D01*
X167935437Y-86235110D01*
X167914335Y-86056453D01*
X167924305Y-85927645D01*
X167971861Y-85774010D01*
X168059554Y-85647511D01*
X168082334Y-85624482D01*
X168154527Y-85565495D01*
X168237964Y-85521262D01*
X168342340Y-85488452D01*
X168477353Y-85463734D01*
X168652698Y-85443778D01*
X168669542Y-85442163D01*
X168796072Y-85427971D01*
X168907059Y-85412143D01*
X168991050Y-85396497D01*
X169036591Y-85382850D01*
X169069871Y-85359294D01*
X169115017Y-85289660D01*
X169124939Y-85205408D01*
X169099545Y-85120881D01*
X169038742Y-85050427D01*
X168970734Y-85015863D01*
X168853768Y-84992409D01*
X168716370Y-84992111D01*
X168571405Y-85013772D01*
X168431741Y-85056195D01*
X168310242Y-85118184D01*
X168218169Y-85178959D01*
X168088501Y-85029281D01*
X168028009Y-84956981D01*
X167990521Y-84903157D01*
X167979227Y-84868037D01*
X167989416Y-84842751D01*
X168016067Y-84818148D01*
X168092877Y-84769584D01*
X168197260Y-84718208D01*
X168315893Y-84669757D01*
X168435452Y-84629967D01*
X168542612Y-84604576D01*
X168575493Y-84599431D01*
X168789910Y-84585999D01*
X168989224Y-84607609D01*
G37*
G36*
X166800998Y-88634947D02*
G01*
X166821054Y-88708483D01*
X166869475Y-88881930D01*
X166913730Y-89034815D01*
X166952106Y-89161571D01*
X166982887Y-89256629D01*
X167004360Y-89314421D01*
X167014810Y-89329380D01*
X167016295Y-89326028D01*
X167031304Y-89284304D01*
X167058912Y-89202663D01*
X167097051Y-89087395D01*
X167143650Y-88944787D01*
X167196641Y-88781129D01*
X167253952Y-88602709D01*
X167476161Y-87908276D01*
X167631752Y-87908276D01*
X167787343Y-87908276D01*
X168018357Y-88621478D01*
X168039509Y-88686599D01*
X168096526Y-88860309D01*
X168148327Y-89015512D01*
X168192906Y-89146373D01*
X168228260Y-89247060D01*
X168252387Y-89311740D01*
X168263282Y-89334578D01*
X168264231Y-89333684D01*
X168276338Y-89301871D01*
X168299189Y-89228932D01*
X168331019Y-89120944D01*
X168370066Y-88983983D01*
X168414565Y-88824126D01*
X168462752Y-88647450D01*
X168470991Y-88616980D01*
X168519006Y-88440776D01*
X168563169Y-88280948D01*
X168601669Y-88143892D01*
X168632693Y-88036004D01*
X168654429Y-87963680D01*
X168665065Y-87933315D01*
X168665249Y-87933029D01*
X168700326Y-87919486D01*
X168779023Y-87912805D01*
X168895414Y-87913497D01*
X169109008Y-87920788D01*
X168780687Y-88952751D01*
X168452365Y-89984713D01*
X168260365Y-89985017D01*
X168068364Y-89985320D01*
X168043023Y-89903990D01*
X168033175Y-89871607D01*
X168009717Y-89793259D01*
X167976109Y-89680346D01*
X167934590Y-89540403D01*
X167887397Y-89380962D01*
X167836767Y-89209557D01*
X167794342Y-89066785D01*
X167747786Y-88912559D01*
X167706926Y-88779826D01*
X167673835Y-88675226D01*
X167650587Y-88605400D01*
X167639255Y-88576988D01*
X167636916Y-88578113D01*
X167621575Y-88611600D01*
X167594882Y-88685492D01*
X167558702Y-88794093D01*
X167514900Y-88931707D01*
X167465343Y-89092638D01*
X167411894Y-89271191D01*
X167201133Y-89984859D01*
X167008367Y-89985090D01*
X166815601Y-89985320D01*
X166741706Y-89753842D01*
X166731133Y-89720722D01*
X166698789Y-89619397D01*
X166654950Y-89482059D01*
X166602146Y-89316627D01*
X166542902Y-89131021D01*
X166479748Y-88933160D01*
X166415210Y-88730963D01*
X166373603Y-88600392D01*
X166316545Y-88420590D01*
X166265872Y-88260034D01*
X166223363Y-88124405D01*
X166190798Y-88019388D01*
X166169954Y-87950665D01*
X166162611Y-87923919D01*
X166167532Y-87920637D01*
X166209559Y-87914303D01*
X166285263Y-87909916D01*
X166383366Y-87908276D01*
X166604121Y-87908276D01*
X166800998Y-88634947D01*
G37*
G36*
X160299303Y-85542368D02*
G01*
X160296457Y-85790798D01*
X160295972Y-85796542D01*
X160256683Y-86038834D01*
X160184233Y-86247006D01*
X160079874Y-86419441D01*
X159944856Y-86554522D01*
X159780432Y-86650634D01*
X159587852Y-86706158D01*
X159557496Y-86710927D01*
X159461549Y-86722813D01*
X159380936Y-86728805D01*
X159339396Y-86727853D01*
X159223655Y-86712362D01*
X159094850Y-86682717D01*
X158974006Y-86644250D01*
X158882150Y-86602294D01*
X158827974Y-86566165D01*
X158759367Y-86513225D01*
X158695570Y-86458125D01*
X158648554Y-86411285D01*
X158630291Y-86383121D01*
X158631143Y-86380971D01*
X158656263Y-86354407D01*
X158709170Y-86307248D01*
X158780328Y-86248077D01*
X158930273Y-86126893D01*
X159006643Y-86191154D01*
X159008589Y-86192770D01*
X159087435Y-86241340D01*
X159192578Y-86286137D01*
X159301512Y-86318954D01*
X159391734Y-86331585D01*
X159453652Y-86326465D01*
X159584899Y-86285138D01*
X159703496Y-86209831D01*
X159797137Y-86109556D01*
X159853517Y-85993327D01*
X159865141Y-85953359D01*
X159878256Y-85906123D01*
X159882349Y-85870185D01*
X159872293Y-85844012D01*
X159842961Y-85826073D01*
X159789226Y-85814833D01*
X159705960Y-85808759D01*
X159588036Y-85806319D01*
X159430326Y-85805979D01*
X159227704Y-85806207D01*
X158573979Y-85806207D01*
X158584532Y-85510218D01*
X158589207Y-85404984D01*
X159006080Y-85404984D01*
X159008105Y-85423811D01*
X159018786Y-85437305D01*
X159045022Y-85446354D01*
X159093713Y-85451846D01*
X159171757Y-85454669D01*
X159286052Y-85455712D01*
X159443498Y-85455862D01*
X159566931Y-85455923D01*
X159695447Y-85455032D01*
X159784603Y-85450899D01*
X159840551Y-85441199D01*
X159869444Y-85423608D01*
X159877432Y-85395800D01*
X159870668Y-85355451D01*
X159855303Y-85300235D01*
X159834291Y-85242077D01*
X159761541Y-85131985D01*
X159660804Y-85050352D01*
X159542047Y-85000495D01*
X159415233Y-84985726D01*
X159290328Y-85009362D01*
X159177297Y-85074717D01*
X159132992Y-85119879D01*
X159070077Y-85211689D01*
X159024244Y-85311634D01*
X159006116Y-85399557D01*
X159006080Y-85404984D01*
X158589207Y-85404984D01*
X158590128Y-85384245D01*
X158598532Y-85284537D01*
X158611733Y-85209223D01*
X158632122Y-85144993D01*
X158662089Y-85078543D01*
X158743916Y-84943093D01*
X158878934Y-84795772D01*
X159038982Y-84685608D01*
X159217375Y-84615037D01*
X159407430Y-84586497D01*
X159602461Y-84602425D01*
X159795784Y-84665256D01*
X159825185Y-84679556D01*
X159978007Y-84785547D01*
X160103964Y-84929622D01*
X160200922Y-85106982D01*
X160266746Y-85312830D01*
X160278514Y-85395800D01*
X160299303Y-85542368D01*
G37*
G36*
X166111971Y-89330167D02*
G01*
X166110990Y-89484960D01*
X166073757Y-89629523D01*
X166042936Y-89690906D01*
X165944062Y-89816633D01*
X165813193Y-89918779D01*
X165662281Y-89986963D01*
X165647345Y-89990417D01*
X165579526Y-89998714D01*
X165483286Y-90004832D01*
X165374335Y-90007644D01*
X165248354Y-90003711D01*
X165094024Y-89978851D01*
X164979636Y-89930378D01*
X164902183Y-89857337D01*
X164861330Y-89799011D01*
X164861330Y-89892166D01*
X164861330Y-89985320D01*
X164647052Y-89985320D01*
X164432773Y-89985320D01*
X164440860Y-89178276D01*
X164441564Y-89109551D01*
X164441565Y-89109458D01*
X164854605Y-89109458D01*
X164866734Y-89278971D01*
X164877087Y-89374448D01*
X164903434Y-89476266D01*
X164946716Y-89542867D01*
X165010784Y-89582367D01*
X165026306Y-89587402D01*
X165102877Y-89603129D01*
X165199646Y-89615248D01*
X165293624Y-89621354D01*
X165361823Y-89619047D01*
X165382777Y-89615791D01*
X165491145Y-89596616D01*
X165563968Y-89577322D01*
X165613602Y-89553775D01*
X165652402Y-89521844D01*
X165665350Y-89507098D01*
X165704114Y-89423896D01*
X165712548Y-89326048D01*
X165687873Y-89235945D01*
X165667978Y-89208411D01*
X165601429Y-89163878D01*
X165496522Y-89133093D01*
X165349788Y-89115229D01*
X165157757Y-89109458D01*
X164854605Y-89109458D01*
X164441565Y-89109458D01*
X164444452Y-88879017D01*
X164448458Y-88691492D01*
X164454599Y-88541406D01*
X164463888Y-88423188D01*
X164477340Y-88331269D01*
X164495971Y-88260079D01*
X164520795Y-88204048D01*
X164552827Y-88157605D01*
X164593083Y-88115181D01*
X164642576Y-88071206D01*
X164733013Y-88004140D01*
X164837223Y-87952659D01*
X164959427Y-87919295D01*
X165109986Y-87901281D01*
X165299261Y-87895850D01*
X165353507Y-87895931D01*
X165469383Y-87897736D01*
X165552899Y-87903428D01*
X165616923Y-87914998D01*
X165674319Y-87934436D01*
X165737955Y-87963734D01*
X165748095Y-87968806D01*
X165835415Y-88019830D01*
X165912370Y-88076422D01*
X165970694Y-88130971D01*
X166002121Y-88175867D01*
X165998383Y-88203500D01*
X165997997Y-88203765D01*
X165965363Y-88227717D01*
X165905975Y-88272473D01*
X165832405Y-88328559D01*
X165692140Y-88436034D01*
X165626724Y-88375409D01*
X165575583Y-88336805D01*
X165499399Y-88305331D01*
X165397370Y-88288582D01*
X165257793Y-88283645D01*
X165122416Y-88292666D01*
X165003302Y-88327407D01*
X164922256Y-88390818D01*
X164876019Y-88485621D01*
X164861330Y-88614534D01*
X164861330Y-88759113D01*
X165207698Y-88759113D01*
X165287397Y-88759590D01*
X165459684Y-88765760D01*
X165596075Y-88780654D01*
X165706477Y-88806290D01*
X165800798Y-88844687D01*
X165888946Y-88897861D01*
X165929117Y-88929976D01*
X166017863Y-89040119D01*
X166079872Y-89177702D01*
X166111104Y-89326048D01*
X166111971Y-89330167D01*
G37*
G36*
X174555605Y-89384504D02*
G01*
X174543706Y-89507369D01*
X174488722Y-89667873D01*
X174392874Y-89805015D01*
X174260411Y-89913233D01*
X174095581Y-89986963D01*
X174082594Y-89990068D01*
X174016102Y-89998624D01*
X173920923Y-90005068D01*
X173813088Y-90008194D01*
X173812614Y-90008198D01*
X173654386Y-90002820D01*
X173533238Y-89981041D01*
X173437982Y-89939597D01*
X173357432Y-89875224D01*
X173294631Y-89812423D01*
X173294631Y-89898871D01*
X173294631Y-89985320D01*
X173080081Y-89985320D01*
X172865532Y-89985320D01*
X172873628Y-89178276D01*
X172874383Y-89104484D01*
X173286929Y-89104484D01*
X173302338Y-89269493D01*
X173315151Y-89372786D01*
X173338189Y-89463368D01*
X173373828Y-89525159D01*
X173426891Y-89569787D01*
X173496140Y-89596949D01*
X173605100Y-89614171D01*
X173731548Y-89617786D01*
X173859392Y-89608259D01*
X173972542Y-89586056D01*
X174054906Y-89551640D01*
X174092553Y-89521611D01*
X174147139Y-89439145D01*
X174160423Y-89345647D01*
X174132170Y-89253369D01*
X174062145Y-89174566D01*
X174042329Y-89160985D01*
X174005621Y-89143476D01*
X173956336Y-89131305D01*
X173885106Y-89123113D01*
X173782563Y-89117540D01*
X173639338Y-89113227D01*
X173286929Y-89104484D01*
X172874383Y-89104484D01*
X172874997Y-89044449D01*
X172877292Y-88847946D01*
X172879842Y-88692250D01*
X172883068Y-88571498D01*
X172887393Y-88479823D01*
X172893239Y-88411361D01*
X172901028Y-88360246D01*
X172911183Y-88320613D01*
X172924125Y-88286598D01*
X172940277Y-88252334D01*
X172980922Y-88179876D01*
X173070782Y-88071179D01*
X173185474Y-87990866D01*
X173330401Y-87936508D01*
X173510963Y-87905673D01*
X173732562Y-87895932D01*
X173836703Y-87896628D01*
X173945182Y-87900633D01*
X174024844Y-87909582D01*
X174087945Y-87925032D01*
X174146740Y-87948539D01*
X174162525Y-87956163D01*
X174239075Y-88000395D01*
X174316009Y-88054115D01*
X174382461Y-88108582D01*
X174427564Y-88155056D01*
X174440452Y-88184797D01*
X174439454Y-88186641D01*
X174412380Y-88214083D01*
X174357352Y-88261256D01*
X174284838Y-88319125D01*
X174226843Y-88363683D01*
X174172309Y-88401848D01*
X174137936Y-88415720D01*
X174112466Y-88409035D01*
X174084641Y-88385525D01*
X174049325Y-88356445D01*
X173966034Y-88313896D01*
X173857492Y-88290693D01*
X173712164Y-88283684D01*
X173696058Y-88283774D01*
X173541494Y-88296923D01*
X173428051Y-88334641D01*
X173351783Y-88400180D01*
X173308748Y-88496793D01*
X173295000Y-88627734D01*
X173294631Y-88759113D01*
X173640434Y-88759113D01*
X173667543Y-88759169D01*
X173861641Y-88763853D01*
X174008931Y-88776201D01*
X174111806Y-88796404D01*
X174226307Y-88839822D01*
X174369052Y-88932229D01*
X174472325Y-89054882D01*
X174534913Y-89206176D01*
X174551096Y-89345647D01*
X174555605Y-89384504D01*
G37*
G36*
X176522808Y-87295172D02*
G01*
X176522808Y-89985320D01*
X176311198Y-89985320D01*
X176099587Y-89985320D01*
X176092232Y-89273900D01*
X176090597Y-89123070D01*
X176088216Y-88946487D01*
X176085369Y-88809803D01*
X176081606Y-88707050D01*
X176076477Y-88632262D01*
X176069530Y-88579472D01*
X176060316Y-88542714D01*
X176048383Y-88516021D01*
X176033282Y-88493427D01*
X175990991Y-88441154D01*
X175907669Y-88369037D01*
X175811034Y-88331779D01*
X175684483Y-88321182D01*
X175605083Y-88324902D01*
X175493732Y-88352314D01*
X175407634Y-88412217D01*
X175334138Y-88511483D01*
X175328488Y-88521394D01*
X175314769Y-88550694D01*
X175304025Y-88586730D01*
X175295799Y-88635688D01*
X175289631Y-88703756D01*
X175285065Y-88797123D01*
X175281640Y-88921975D01*
X175278899Y-89084500D01*
X175276383Y-89290887D01*
X175268677Y-89985320D01*
X175055808Y-89985320D01*
X174842940Y-89985320D01*
X174850805Y-89203300D01*
X174858670Y-88421281D01*
X174928766Y-88278538D01*
X174964912Y-88213317D01*
X175022458Y-88129610D01*
X175076000Y-88070889D01*
X175147492Y-88017228D01*
X175312532Y-87933321D01*
X175487448Y-87891574D01*
X175663770Y-87892428D01*
X175833028Y-87936320D01*
X175986752Y-88023691D01*
X176097389Y-88108142D01*
X176097389Y-87295172D01*
X176097389Y-86482202D01*
X175983162Y-86569394D01*
X175880242Y-86635871D01*
X175712110Y-86701162D01*
X175539053Y-86721839D01*
X175368717Y-86698314D01*
X175208745Y-86630994D01*
X175066783Y-86520291D01*
X174999489Y-86443714D01*
X174936396Y-86339967D01*
X174894011Y-86216780D01*
X174865789Y-86059140D01*
X174859565Y-85999944D01*
X174852081Y-85862337D01*
X174850282Y-85704745D01*
X174851278Y-85656059D01*
X175284089Y-85656059D01*
X175285108Y-85758540D01*
X175293115Y-85910477D01*
X175311096Y-86025848D01*
X175341446Y-86113091D01*
X175386557Y-86180643D01*
X175448821Y-86236943D01*
X175451702Y-86239030D01*
X175528664Y-86272617D01*
X175632608Y-86292289D01*
X175742877Y-86295732D01*
X175838812Y-86280631D01*
X175853265Y-86275789D01*
X175949139Y-86216660D01*
X176020591Y-86117308D01*
X176068000Y-85976664D01*
X176091746Y-85793657D01*
X176092208Y-85567219D01*
X176078009Y-85399916D01*
X176045636Y-85251330D01*
X175993068Y-85142971D01*
X175917262Y-85070753D01*
X175815180Y-85030589D01*
X175683779Y-85018393D01*
X175587496Y-85024244D01*
X175480924Y-85054965D01*
X175400289Y-85117933D01*
X175334138Y-85219743D01*
X175329637Y-85228803D01*
X175310026Y-85277248D01*
X175296871Y-85333689D01*
X175288966Y-85408634D01*
X175285107Y-85512588D01*
X175284089Y-85656059D01*
X174851278Y-85656059D01*
X174853675Y-85538827D01*
X174861769Y-85376244D01*
X174874074Y-85228656D01*
X174890098Y-85107721D01*
X174909350Y-85025102D01*
X174928822Y-84979760D01*
X174984629Y-84886042D01*
X175050740Y-84803692D01*
X175126402Y-84735594D01*
X175282336Y-84642832D01*
X175452278Y-84594324D01*
X175628966Y-84590723D01*
X175805136Y-84632681D01*
X175973526Y-84720849D01*
X176097389Y-84806052D01*
X176097389Y-84705538D01*
X176097389Y-84605025D01*
X176310099Y-84605025D01*
X176522808Y-84605025D01*
X176522808Y-85567219D01*
X176522808Y-87295172D01*
G37*
G36*
X169665286Y-69045961D02*
G01*
X169667330Y-69052233D01*
X169679387Y-69102749D01*
X169698930Y-69195162D01*
X169724857Y-69323864D01*
X169756066Y-69483245D01*
X169791454Y-69667694D01*
X169829918Y-69871602D01*
X169870355Y-70089358D01*
X169911371Y-70310277D01*
X169954166Y-70535636D01*
X169990172Y-70718171D01*
X170020178Y-70861464D01*
X170044973Y-70969101D01*
X170065347Y-71044664D01*
X170082089Y-71091737D01*
X170095988Y-71113905D01*
X170118348Y-71127425D01*
X170183778Y-71159214D01*
X170282895Y-71203702D01*
X170408454Y-71257940D01*
X170553212Y-71318981D01*
X170709924Y-71383879D01*
X170871346Y-71449685D01*
X171030233Y-71513454D01*
X171179342Y-71572237D01*
X171311427Y-71623087D01*
X171419246Y-71663058D01*
X171495553Y-71689202D01*
X171533104Y-71698571D01*
X171541078Y-71696359D01*
X171587945Y-71672090D01*
X171669396Y-71623453D01*
X171780766Y-71553452D01*
X171917388Y-71465091D01*
X172074598Y-71361372D01*
X172247728Y-71245300D01*
X172432114Y-71119877D01*
X172506356Y-71069160D01*
X172686776Y-70947100D01*
X172854049Y-70835580D01*
X173003516Y-70737604D01*
X173130518Y-70656173D01*
X173230395Y-70594291D01*
X173298488Y-70554960D01*
X173330137Y-70541182D01*
X173336858Y-70543550D01*
X173377136Y-70572811D01*
X173445831Y-70631824D01*
X173538318Y-70716003D01*
X173649976Y-70820763D01*
X173776179Y-70941519D01*
X173912306Y-71073685D01*
X174053732Y-71212674D01*
X174195835Y-71353903D01*
X174333990Y-71492784D01*
X174463576Y-71624734D01*
X174579968Y-71745165D01*
X174678543Y-71849493D01*
X174754677Y-71933132D01*
X174803749Y-71991496D01*
X174821133Y-72020000D01*
X174819676Y-72024842D01*
X174797373Y-72065397D01*
X174750523Y-72140958D01*
X174682160Y-72246912D01*
X174595317Y-72378643D01*
X174493028Y-72531537D01*
X174378327Y-72700979D01*
X174254246Y-72882354D01*
X174215652Y-72938574D01*
X174093372Y-73117937D01*
X173980946Y-73284685D01*
X173881492Y-73434072D01*
X173798130Y-73561351D01*
X173733977Y-73661774D01*
X173692151Y-73730593D01*
X173675770Y-73763062D01*
X173675582Y-73767233D01*
X173686384Y-73812516D01*
X173714319Y-73894994D01*
X173756463Y-74007749D01*
X173809894Y-74143866D01*
X173871688Y-74296429D01*
X173938924Y-74458520D01*
X174008677Y-74623223D01*
X174078025Y-74783621D01*
X174144045Y-74932799D01*
X174203815Y-75063840D01*
X174254411Y-75169828D01*
X174292910Y-75243845D01*
X174316391Y-75278976D01*
X174333692Y-75287240D01*
X174399407Y-75306526D01*
X174509557Y-75332942D01*
X174661124Y-75365842D01*
X174851089Y-75404578D01*
X175076434Y-75448505D01*
X175334138Y-75496976D01*
X175397468Y-75508742D01*
X175609046Y-75548646D01*
X175804150Y-75586336D01*
X175977320Y-75620697D01*
X176123090Y-75650613D01*
X176235999Y-75674971D01*
X176310583Y-75692654D01*
X176341380Y-75702548D01*
X176345702Y-75712418D01*
X176353352Y-75766303D01*
X176359869Y-75860496D01*
X176365252Y-75988548D01*
X176369500Y-76144006D01*
X176372614Y-76320422D01*
X176374594Y-76511345D01*
X176375440Y-76710323D01*
X176375152Y-76910908D01*
X176373730Y-77106647D01*
X176371174Y-77291091D01*
X176367483Y-77457790D01*
X176362658Y-77600292D01*
X176356700Y-77712148D01*
X176349607Y-77786907D01*
X176341380Y-77818118D01*
X176339452Y-77819259D01*
X176300750Y-77830919D01*
X176219311Y-77850190D01*
X176100694Y-77875921D01*
X175950459Y-77906957D01*
X175774164Y-77942148D01*
X175577371Y-77980341D01*
X175365637Y-78020382D01*
X175331160Y-78026830D01*
X175120671Y-78066650D01*
X174925438Y-78104342D01*
X174751124Y-78138759D01*
X174603390Y-78168754D01*
X174487901Y-78193181D01*
X174410317Y-78210891D01*
X174376303Y-78220740D01*
X174360506Y-78241473D01*
X174327602Y-78304013D01*
X174282167Y-78401230D01*
X174226894Y-78526419D01*
X174164475Y-78672874D01*
X174097602Y-78833889D01*
X174028970Y-79002760D01*
X173961269Y-79172782D01*
X173897194Y-79337247D01*
X173839436Y-79489452D01*
X173790688Y-79622690D01*
X173753644Y-79730256D01*
X173730996Y-79805445D01*
X173725435Y-79841551D01*
X173725799Y-79842651D01*
X173744772Y-79876568D01*
X173788741Y-79946356D01*
X173854491Y-80047167D01*
X173938803Y-80174150D01*
X174038459Y-80322457D01*
X174150241Y-80487239D01*
X174270933Y-80663645D01*
X174281781Y-80679441D01*
X174401807Y-80855018D01*
X174512627Y-81018545D01*
X174611024Y-81165173D01*
X174693784Y-81290053D01*
X174757691Y-81388337D01*
X174799529Y-81455176D01*
X174816084Y-81485720D01*
X174813048Y-81501044D01*
X174790942Y-81536540D01*
X174746267Y-81592047D01*
X174676768Y-81670008D01*
X174580188Y-81772864D01*
X174454273Y-81903058D01*
X174296767Y-82063032D01*
X174105414Y-82255228D01*
X174047049Y-82313549D01*
X173858203Y-82501039D01*
X173701286Y-82654612D01*
X173574306Y-82776115D01*
X173475269Y-82867399D01*
X173402183Y-82930312D01*
X173353054Y-82966704D01*
X173325889Y-82978424D01*
X173303279Y-82970249D01*
X173240700Y-82936079D01*
X173144658Y-82877777D01*
X173019362Y-82798035D01*
X172869024Y-82699544D01*
X172697856Y-82584995D01*
X172510066Y-82457079D01*
X172508446Y-82455965D01*
X172334045Y-82336562D01*
X172171418Y-82225902D01*
X172025465Y-82127268D01*
X171901089Y-82043944D01*
X171803189Y-81979214D01*
X171736668Y-81936361D01*
X171706427Y-81918669D01*
X171703069Y-81917761D01*
X171656380Y-81925623D01*
X171569926Y-81959175D01*
X171442868Y-82018779D01*
X171274366Y-82104798D01*
X171140637Y-82174199D01*
X171032044Y-82228304D01*
X170955271Y-82262852D01*
X170904126Y-82280337D01*
X170872415Y-82283253D01*
X170853946Y-82274094D01*
X170845680Y-82260159D01*
X170818673Y-82203388D01*
X170776099Y-82107864D01*
X170719798Y-81978057D01*
X170651610Y-81818433D01*
X170573375Y-81633460D01*
X170486934Y-81427607D01*
X170394128Y-81205341D01*
X170296796Y-80971131D01*
X170196778Y-80729442D01*
X170095916Y-80484745D01*
X169996049Y-80241506D01*
X169899018Y-80004194D01*
X169806663Y-79777276D01*
X169720824Y-79565220D01*
X169643342Y-79372494D01*
X169576057Y-79203565D01*
X169520809Y-79062903D01*
X169479439Y-78954973D01*
X169453787Y-78884245D01*
X169445693Y-78855187D01*
X169457202Y-78837322D01*
X169503401Y-78793399D01*
X169576123Y-78735482D01*
X169666059Y-78671336D01*
X169780106Y-78590978D01*
X170049434Y-78370049D01*
X170273111Y-78134825D01*
X170453636Y-77882001D01*
X170593505Y-77608276D01*
X170695217Y-77310345D01*
X170708484Y-77255166D01*
X170738033Y-77062800D01*
X170751464Y-76846765D01*
X170748780Y-76624825D01*
X170729982Y-76414744D01*
X170695073Y-76234286D01*
X170668205Y-76142103D01*
X170546527Y-75835246D01*
X170384099Y-75554546D01*
X170184149Y-75303148D01*
X169949906Y-75084202D01*
X169684598Y-74900853D01*
X169391453Y-74756250D01*
X169073699Y-74653538D01*
X168965645Y-74633549D01*
X168797399Y-74617204D01*
X168610403Y-74611031D01*
X168421596Y-74615029D01*
X168247916Y-74629198D01*
X168106302Y-74653538D01*
X168015844Y-74677643D01*
X167703582Y-74792532D01*
X167417434Y-74948493D01*
X167160392Y-75142595D01*
X166935452Y-75371910D01*
X166745606Y-75633508D01*
X166593849Y-75924458D01*
X166483176Y-76241831D01*
X166466285Y-76314489D01*
X166439649Y-76503123D01*
X166428224Y-76714342D01*
X166431980Y-76930831D01*
X166450891Y-77135271D01*
X166484927Y-77310345D01*
X166532534Y-77467064D01*
X166646821Y-77740956D01*
X166796623Y-77992251D01*
X166985545Y-78225761D01*
X167217193Y-78446300D01*
X167495173Y-78658679D01*
X167588041Y-78725950D01*
X167666545Y-78788371D01*
X167719646Y-78837038D01*
X167739163Y-78865036D01*
X167735779Y-78877763D01*
X167715679Y-78933308D01*
X167679118Y-79027813D01*
X167627955Y-79156790D01*
X167564050Y-79315749D01*
X167489263Y-79500201D01*
X167405455Y-79705659D01*
X167314485Y-79927634D01*
X167218214Y-80161636D01*
X167118502Y-80403177D01*
X167017209Y-80647768D01*
X166916194Y-80890921D01*
X166817319Y-81128146D01*
X166722443Y-81354956D01*
X166633426Y-81566861D01*
X166552129Y-81759372D01*
X166480411Y-81928002D01*
X166420132Y-82068261D01*
X166373154Y-82175660D01*
X166341335Y-82245710D01*
X166326536Y-82273924D01*
X166309819Y-82282697D01*
X166279139Y-82280781D01*
X166229385Y-82264560D01*
X166154368Y-82231567D01*
X166047900Y-82179336D01*
X165903795Y-82105399D01*
X165891792Y-82099181D01*
X165723936Y-82014804D01*
X165597304Y-81956632D01*
X165512269Y-81924822D01*
X165469205Y-81919535D01*
X165467789Y-81920075D01*
X165423872Y-81943491D01*
X165354572Y-81986820D01*
X165274237Y-82041117D01*
X165181790Y-82105744D01*
X164955749Y-82262550D01*
X164740560Y-82410160D01*
X164539969Y-82546103D01*
X164357723Y-82667908D01*
X164197566Y-82773107D01*
X164063247Y-82859228D01*
X163958509Y-82923801D01*
X163887101Y-82964356D01*
X163852767Y-82978424D01*
X163843094Y-82975254D01*
X163798128Y-82944126D01*
X163725766Y-82883470D01*
X163630561Y-82797851D01*
X163517066Y-82691836D01*
X163389836Y-82569991D01*
X163253424Y-82436882D01*
X163112384Y-82297076D01*
X162971270Y-82155138D01*
X162834634Y-82015635D01*
X162707032Y-81883134D01*
X162593016Y-81762199D01*
X162497141Y-81657398D01*
X162423959Y-81573296D01*
X162378025Y-81514461D01*
X162363892Y-81485457D01*
X162364248Y-81484354D01*
X162383146Y-81450393D01*
X162427064Y-81380576D01*
X162492786Y-81279753D01*
X162577093Y-81152772D01*
X162676769Y-81004484D01*
X162788595Y-80839738D01*
X162909354Y-80663382D01*
X162920194Y-80647614D01*
X163040299Y-80472091D01*
X163151194Y-80308613D01*
X163249659Y-80162026D01*
X163332478Y-80037179D01*
X163396432Y-79938920D01*
X163438304Y-79872094D01*
X163454876Y-79841551D01*
X163451360Y-79814472D01*
X163431249Y-79745506D01*
X163396350Y-79643044D01*
X163349349Y-79513787D01*
X163292935Y-79364434D01*
X163229794Y-79201685D01*
X163162615Y-79032240D01*
X163094085Y-78862800D01*
X163026891Y-78700064D01*
X162963721Y-78550733D01*
X162907262Y-78421506D01*
X162860202Y-78319084D01*
X162825228Y-78250166D01*
X162805028Y-78221452D01*
X162802793Y-78220477D01*
X162761721Y-78209464D01*
X162677973Y-78190778D01*
X162557201Y-78165559D01*
X162405059Y-78134948D01*
X162227197Y-78100084D01*
X162029270Y-78062108D01*
X161816929Y-78022159D01*
X161780380Y-78015333D01*
X161570685Y-77975559D01*
X161376819Y-77937774D01*
X161204352Y-77903136D01*
X161058852Y-77872800D01*
X160945890Y-77847925D01*
X160871035Y-77829667D01*
X160839856Y-77819183D01*
X160835511Y-77809404D01*
X160827629Y-77755513D01*
X160820885Y-77661274D01*
X160815285Y-77533143D01*
X160810832Y-77377575D01*
X160807529Y-77201028D01*
X160805381Y-77009956D01*
X160804391Y-76810816D01*
X160804563Y-76610063D01*
X160805901Y-76414154D01*
X160808409Y-76229545D01*
X160812090Y-76062691D01*
X160816947Y-75920048D01*
X160822986Y-75808072D01*
X160830209Y-75733220D01*
X160838621Y-75701946D01*
X160842688Y-75699920D01*
X160886671Y-75687543D01*
X160972869Y-75667717D01*
X161095819Y-75641560D01*
X161250057Y-75610189D01*
X161430119Y-75574721D01*
X161630542Y-75536274D01*
X161845862Y-75495965D01*
X162031867Y-75461165D01*
X162262113Y-75416801D01*
X162460331Y-75377022D01*
X162623057Y-75342568D01*
X162746822Y-75314181D01*
X162828162Y-75292600D01*
X162863610Y-75278566D01*
X162867202Y-75274722D01*
X162894098Y-75230881D01*
X162935399Y-75149602D01*
X162988181Y-75037802D01*
X163049520Y-74902397D01*
X163116492Y-74750308D01*
X163186173Y-74588451D01*
X163255639Y-74423744D01*
X163321965Y-74263105D01*
X163382229Y-74113453D01*
X163433506Y-73981704D01*
X163472871Y-73874778D01*
X163497402Y-73799591D01*
X163504173Y-73763062D01*
X163502086Y-73757362D01*
X163477666Y-73713404D01*
X163428740Y-73634535D01*
X163358426Y-73525504D01*
X163269845Y-73391057D01*
X163166117Y-73235944D01*
X163050361Y-73064911D01*
X162925697Y-72882706D01*
X162885164Y-72823679D01*
X162763744Y-72645648D01*
X162652678Y-72481012D01*
X162554999Y-72334387D01*
X162473744Y-72210391D01*
X162411947Y-72113642D01*
X162372643Y-72048756D01*
X162358867Y-72020352D01*
X162361264Y-72013674D01*
X162390782Y-71973713D01*
X162450285Y-71905562D01*
X162535152Y-71813807D01*
X162640760Y-71703035D01*
X162762487Y-71577833D01*
X162895712Y-71442788D01*
X163035812Y-71302485D01*
X163178165Y-71161511D01*
X163318149Y-71024453D01*
X163451143Y-70895898D01*
X163572524Y-70780431D01*
X163677670Y-70682639D01*
X163761959Y-70607110D01*
X163820770Y-70558429D01*
X163849480Y-70541182D01*
X163855030Y-70542506D01*
X163898332Y-70564446D01*
X163976537Y-70611017D01*
X164084925Y-70679173D01*
X164218777Y-70765870D01*
X164373373Y-70868061D01*
X164543994Y-70982701D01*
X164725918Y-71106744D01*
X164781206Y-71144677D01*
X164960309Y-71267094D01*
X165126545Y-71380024D01*
X165275194Y-71480308D01*
X165401539Y-71564786D01*
X165500860Y-71630297D01*
X165568439Y-71673682D01*
X165599557Y-71691782D01*
X165613072Y-71696263D01*
X165633764Y-71698984D01*
X165661792Y-71696341D01*
X165702020Y-71686611D01*
X165759311Y-71668074D01*
X165838530Y-71639008D01*
X165944540Y-71597691D01*
X166082205Y-71542403D01*
X166256389Y-71471422D01*
X166471956Y-71383027D01*
X166588799Y-71334664D01*
X166739723Y-71270991D01*
X166871744Y-71213910D01*
X166977984Y-71166453D01*
X167051564Y-71131652D01*
X167085606Y-71112540D01*
X167090400Y-71106734D01*
X167105896Y-71070996D01*
X167125569Y-71003688D01*
X167150067Y-70901838D01*
X167180041Y-70762477D01*
X167216139Y-70582633D01*
X167259012Y-70359336D01*
X167309308Y-70089616D01*
X167322042Y-70020763D01*
X167362037Y-69806687D01*
X167399712Y-69608202D01*
X167433966Y-69430918D01*
X167463692Y-69280443D01*
X167487789Y-69162386D01*
X167505152Y-69082355D01*
X167514678Y-69045961D01*
X167537893Y-68989655D01*
X168590000Y-68989655D01*
X169642108Y-68989655D01*
X169665286Y-69045961D01*
G37*
%TD*%
M02*
