M48
; DRILL file {KiCad 9.0.2-2.fc42} date 2025-05-29T14:11:34+0800
; FORMAT={-:-/ absolute / metric / decimal}
; #@! TF.CreationDate,2025-05-29T14:11:34+08:00
; #@! TF.GenerationSoftware,Kicad,Pcbnew,9.0.2-2.fc42
; #@! TF.FileFunction,Plated,1,2,PTH
FMAT,2
METRIC
; #@! TA.AperFunction,Plated,PTH,ViaDrill
T1C0.300
; #@! TA.AperFunction,Plated,PTH,ComponentDrill
T2C1.000
; #@! TA.AperFunction,Plated,PTH,ComponentDrill
T3C1.300
; #@! TA.AperFunction,Plated,PTH,ComponentDrill
T4C1.400
; #@! TA.AperFunction,Plated,PTH,ComponentDrill
T5C3.200
%
G90
G05
T1
X138.0Y-94.5
X138.5Y-89.0
X146.5Y-96.5
X147.5Y-90.5
X154.0Y-66.0
X154.0Y-100.0
X156.0Y-70.0
X157.0Y-75.5
X158.5Y-75.5
X162.0Y-76.0
X162.5Y-83.5
X163.0Y-75.0
X167.0Y-83.5
X167.2Y-80.9
X169.4Y-80.0
X171.0Y-76.5
X176.5Y-77.5
X176.5Y-85.5
X177.0Y-83.5
X182.5Y-85.5
X183.5Y-78.5
X185.0Y-61.5
X185.5Y-67.0
X185.5Y-83.5
X187.0Y-89.5
X187.0Y-94.5
X187.5Y-87.0
X188.0Y-78.5
X188.0Y-79.5
X188.495Y-84.495
X188.5Y-65.5
X188.5Y-99.35
X189.5Y-59.5
X190.0Y-86.5
X190.5Y-61.5
T2
X184.475Y-76.242
X187.015Y-76.242
X189.555Y-76.242
T3
X138.368Y-76.5
X138.368Y-81.5
X199.132Y-68.5
X199.132Y-73.5
X199.132Y-86.0
X199.132Y-91.0
T4
X158.0Y-64.0
X158.0Y-94.5
X163.0Y-64.0
X163.0Y-94.5
X168.0Y-64.0
X168.0Y-94.5
X173.0Y-64.0
X173.0Y-94.5
X178.0Y-64.0
X178.0Y-94.5
T5
X137.5Y-60.5
X137.5Y-98.5
X200.5Y-60.5
X200.5Y-98.5
M30
